<svg width="60" height="60" viewBox="0 0 69 70" fill="none" xmlns="http://www.w3.org/2000/svg">
<path fill-rule="evenodd" clip-rule="evenodd" d="M19.9643 9.7686C20.0658 8.91425 20.4807 5.41851 21.2676 4.77332C22.3413 3.89104 27.2085 3.98438 29.2981 4.02525C29.6081 4.0307 29.8568 4.03547 30.023 4.03615C30.1116 4.03615 30.211 4.03002 30.3166 4.02389C30.7622 3.99732 31.3113 3.9653 31.5614 4.34138C31.795 4.69225 31.667 5.29111 31.5641 5.77074C31.5307 5.92744 31.5 6.07051 31.4857 6.18974C31.3311 7.42357 30.8855 8.58382 30.4393 9.74612C30.0652 10.7217 29.6898 11.698 29.4854 12.7214C29.4502 12.8601 29.4093 12.9974 29.3628 13.1329C29.1557 13.778 28.8007 14.8838 29.0998 15.1829C29.5999 15.6823 31.5232 15.6911 32.8729 15.6979C33.3157 15.7 33.6972 15.7014 33.9466 15.7204C35.3596 15.8294 36.7985 15.8172 38.2279 15.8056C38.6741 15.8015 39.119 15.7981 39.5625 15.7981C39.6232 15.7981 39.7628 15.8185 39.9366 15.8437C40.3808 15.9091 41.0471 16.0066 41.1786 15.8758C41.6787 15.3743 41.9457 14.567 42.2005 13.7978C42.3164 13.4449 42.4301 13.1008 42.563 12.7977C42.9704 11.8472 43.5686 10.9582 44.1675 10.0684C44.6682 9.32508 45.1696 8.57974 45.5614 7.79692C45.6343 7.65317 45.7201 7.39496 45.8189 7.09927C46.0478 6.41389 46.3456 5.52139 46.7162 5.33607C46.9785 5.20594 47.5958 5.32108 47.9493 5.38649L48.1006 5.41374C49.5322 5.6472 50.9682 5.85254 52.4078 6.02963C52.6094 6.05484 52.8765 6.06506 53.1708 6.07596C54.0081 6.10798 55.0662 6.14886 55.4859 6.5665C55.7059 6.78792 55.4777 7.63546 55.3394 8.14916C55.2985 8.29904 55.2658 8.42168 55.2542 8.49049C54.8928 10.6255 54.2993 12.7148 53.4842 14.721C53.4638 14.7727 53.4195 14.8736 53.3602 15.0057C53.0618 15.6748 52.3969 17.1682 52.6415 17.4141C52.8724 17.6458 53.9686 17.4755 54.7514 17.3542C55.0826 17.3031 55.3578 17.2602 55.4879 17.2602C57.027 17.2602 58.4938 17.5286 59.9661 17.7984C60.9499 17.9776 61.9371 18.1581 62.9495 18.2596C63.0326 18.2678 63.1546 18.2733 63.3024 18.2808C64.0798 18.3196 65.5609 18.3925 65.7183 19.0281C65.9207 19.8389 65.796 20.7505 65.6774 21.6191C65.6332 21.9441 65.5896 22.2629 65.5644 22.5682C65.5385 22.8836 65.5426 23.2876 65.5473 23.7216C65.5582 24.6809 65.5705 25.7873 65.2571 26.4141C64.9961 26.936 63.8107 27.1485 63.0013 27.2937C62.7588 27.3373 62.5503 27.3754 62.4099 27.4129C60.6004 27.9068 58.705 27.8373 56.826 27.7685C56.172 27.744 55.5193 27.7208 54.8727 27.7208L54.6704 27.7195C53.9073 27.7127 52.1203 27.6977 51.7122 28.1058C51.5759 28.242 51.5739 28.9656 51.5725 29.497C51.5725 29.7402 51.5718 29.9425 51.5589 30.0297C51.2966 31.7262 51.0043 33.4308 50.4034 35.0305C50.3169 35.2601 49.9129 36.3849 50.1738 36.6445C50.4347 36.9054 51.7258 36.6922 52.6578 36.5375C53.0652 36.4707 53.4038 36.4149 53.5578 36.4149C53.8841 36.4149 54.2166 36.4135 54.5532 36.4122C57.1762 36.4026 60.0778 36.3917 62.5578 36.9517C62.7853 37.0028 63.1287 36.9953 63.4966 36.9879C64.1459 36.9742 64.8722 36.9579 65.1746 37.2597C65.251 37.3374 65.146 37.7128 65.0752 37.9669C65.0537 38.0378 65.0355 38.1096 65.0207 38.1822C64.8708 39.2286 64.5608 40.2724 64.2556 41.3025C64.1759 41.5716 64.0962 41.8394 64.0198 42.1065C63.7094 43.2951 63.4779 44.5029 63.327 45.7221C63.3188 45.7821 63.3154 45.8849 63.3113 46.0035C63.3011 46.3169 63.2874 46.742 63.173 46.7986C62.0706 47.3504 59.8878 47.176 58.7118 47.0302C56.9296 46.8067 54.8966 47.0684 53.1742 47.4138C53.0707 47.4342 52.9303 47.4587 52.7668 47.4873C52.0058 47.6188 50.7502 47.8362 50.4034 48.183C49.7725 48.8166 49.4625 50.498 49.2854 51.4586C49.2741 51.5207 49.2628 51.5827 49.2513 51.6446C49.1525 52.1713 49.0592 52.6993 48.9652 53.2266C48.5761 55.4156 48.1871 57.6046 47.4806 59.7221C47.0807 60.9212 46.2904 63.1286 44.8658 63.4134C43.3656 63.7132 41.5199 63.5251 40.0197 63.3378C39.8874 63.3223 39.7547 63.3105 39.6218 63.3023C39.1497 63.269 38.6128 63.2308 38.3342 62.9522C38.185 62.8036 38.3192 61.8559 38.4132 61.189C38.4541 60.9014 38.4881 60.6657 38.4881 60.569C38.4881 57.6271 39.3241 54.5381 40.3331 51.7986C40.8863 50.3821 41.5154 48.9964 42.2176 47.6475C42.3913 47.3095 42.781 46.5533 42.4867 46.259C42.3191 46.0934 41.4416 46.229 40.9762 46.3005C40.857 46.3189 40.765 46.3332 40.7187 46.3373C38.9153 46.4886 37.1576 46.569 35.333 46.569C34.6885 46.569 34.0352 46.5574 33.3777 46.5458C30.6764 46.4988 27.898 46.4504 25.3322 47.1842C25.1306 47.2421 24.8908 47.2864 24.638 47.3334C24.018 47.4485 23.3238 47.5766 22.9491 47.9513C22.5948 48.3056 22.4449 49.038 22.3059 49.7206C22.2228 50.1274 22.1438 50.5171 22.0266 50.7978C21.0421 53.1578 20.0665 55.5246 19.2557 57.9514C19.2108 58.0856 19.1644 58.2321 19.1154 58.3868C18.7086 59.6697 18.1152 61.5412 16.8725 61.9554C16.2519 62.1639 15.1557 61.8076 14.2816 61.5235C13.945 61.4145 13.6411 61.3157 13.4102 61.2646C13.0539 61.1855 12.6083 61.1304 12.1314 61.0711C10.8853 60.9164 9.41844 60.7345 8.71807 60.0335C8.56477 59.8809 9.03828 58.5074 9.24539 57.9078C9.28968 57.7784 9.32238 57.6857 9.3326 57.6489C9.77749 56.0935 10.3375 54.6158 10.8982 53.1346C11.2866 52.1113 11.6749 51.086 12.0258 50.0334C12.081 49.8678 12.2104 49.5803 12.3685 49.2294C12.8624 48.1332 13.6371 46.4129 13.3325 45.8025C13.0082 45.1519 11.9713 45.1021 11.2082 45.0653C11.0444 45.0594 10.8808 45.0485 10.7177 45.0326C10.4956 45.0081 10.2701 44.9849 10.0418 44.9604C8.67923 44.8153 7.23079 44.6606 5.94858 44.3418C5.72512 44.2852 5.46213 44.2444 5.18757 44.2014C4.4981 44.0938 3.7364 43.9746 3.33444 43.5726C3.11915 43.358 3.33648 42.5759 3.47342 42.0833C3.51771 41.9232 3.55381 41.7937 3.56335 41.7249C3.61445 41.3679 3.64988 41.0021 3.68599 40.6383C3.8529 38.918 4.01505 37.2474 5.79529 36.8025C8.20709 36.1996 10.0432 36.1826 12.4877 36.7262C12.6131 36.7542 12.7623 36.7991 12.9224 36.8475C13.6173 37.058 14.5268 37.3326 14.719 36.5723C15.2858 34.3056 15.8697 31.9115 16.1034 29.5726C16.1102 29.5017 16.1299 29.3839 16.1545 29.2374C16.2703 28.5432 16.4951 27.1921 16.025 26.955C15.6728 26.7779 15.0794 26.8215 14.5316 26.861C14.1957 26.8862 13.8775 26.9087 13.6418 26.8794C12.0581 26.7027 10.4648 26.6254 8.87136 26.6478C8.60429 26.6478 8.32087 26.6703 8.04017 26.6927C6.90036 26.7834 5.81232 26.8699 6.10256 25.4174C6.17069 25.0788 6.23337 24.6884 6.30013 24.2714C6.57265 22.5852 6.91671 20.45 7.94888 19.4185C8.03063 19.3293 8.54842 19.3368 8.93472 19.3436C9.11458 19.3456 9.26583 19.3483 9.3326 19.3402C10.0071 19.2564 10.6788 19.1658 11.352 19.0745C12.0367 18.9811 12.7227 18.8878 13.4102 18.8026C13.9368 18.7365 14.4648 18.7168 14.9922 18.697C15.5685 18.6752 16.1449 18.6534 16.7186 18.571C16.7594 18.5655 16.8548 18.5758 16.9686 18.5873C17.1948 18.6112 17.4912 18.6425 17.5613 18.571C17.6806 18.4504 17.7855 17.8406 17.8611 17.3991C17.8965 17.1934 17.9258 17.0244 17.947 16.957C18.1289 16.4045 18.3251 15.8485 18.522 15.2912C18.9342 14.1255 19.3477 12.955 19.6325 11.803C19.7067 11.5107 19.7463 11.1993 19.7858 10.8853C19.8253 10.5719 19.8655 10.2557 19.9404 9.95528C19.9432 9.94301 19.9513 9.87761 19.9643 9.7686ZM30.6334 26.6478C30.6334 26.6076 30.9373 25.384 31.0558 25.6851C32.7114 25.495 35.2254 25.9086 38.5569 26.4686C38.6428 26.4836 38.8615 26.4979 39.1361 26.5163C39.8221 26.5613 40.8557 26.6287 41.0178 26.7868C41.2413 27.0041 40.5232 29.2531 40.4094 29.6121L40.4026 29.6319L40.096 30.6129C39.5476 32.3584 39.0046 34.0876 38.559 35.8623C38.5215 36.0143 38.495 36.2739 38.4643 36.5675C38.4009 37.1868 38.3212 37.956 38.0957 38.1801C37.7846 38.152 37.476 38.1008 37.1725 38.0268C36.7638 37.9362 35.5102 37.7475 34.0467 37.5281C31.3726 37.1262 27.9968 36.6193 27.789 36.4128C27.5403 36.1676 28.0479 34.9753 28.1726 34.7266C28.9711 33.1276 29.5216 31.1634 29.9426 29.4193C30.0353 29.0269 30.1374 28.6392 30.2396 28.2509C30.3786 27.7195 30.5183 27.1881 30.6341 26.6478H30.6334Z" fill="#141414"/>
</svg>
