<svg width="28" height="24.6" viewBox="0 0 41 37" fill="none" xmlns="http://www.w3.org/2000/svg">
<path d="M0.000316207 4.00031C0.000141575 1.79105 1.79105 0 4.00032 0H26.8686L26.8715 36.0362H4.00254C1.79352 36.0362 0.00270696 34.2455 0.00253235 32.0365L0.000316207 4.00031Z" fill="#FDF9F0"/>
<path d="M26.8686 0L26.8715 36.0362L38.7581 20.861C39.8715 19.4395 39.8946 17.4484 38.8144 16.0015L26.8686 0Z" fill="#FDF9F0"/>
<path d="M20.9182 17.9338C21.7342 18.1258 22.4002 18.4738 22.9162 18.9778C23.4322 19.4698 23.6902 20.1358 23.6902 20.9758C23.6902 21.6958 23.4862 22.3318 23.0782 22.8838C22.6822 23.4238 22.1122 23.8438 21.3682 24.1438C20.6242 24.4438 19.7602 24.5938 18.7762 24.5938C17.2762 24.5938 16.0882 24.2158 15.2122 23.4598C14.3362 22.6918 13.8982 21.6358 13.8982 20.2918H16.4722C16.4842 20.9878 16.7182 21.5398 17.1742 21.9478C17.6302 22.3558 18.2122 22.5598 18.9202 22.5598C19.5322 22.5598 20.0362 22.3978 20.4322 22.0738C20.8402 21.7498 21.0442 21.3118 21.0442 20.7598C21.0442 20.2558 20.8462 19.8598 20.4502 19.5718C20.0542 19.2838 19.4842 19.1398 18.7402 19.1398H17.4982V17.0698H18.5962C19.2922 17.0698 19.8262 16.9198 20.1982 16.6198C20.5822 16.3078 20.7742 15.8938 20.7742 15.3778C20.7742 14.8858 20.6002 14.5018 20.2522 14.2258C19.9042 13.9498 19.4482 13.8118 18.8842 13.8118C18.2722 13.8118 17.7682 13.9798 17.3722 14.3158C16.9762 14.6518 16.7722 15.1078 16.7602 15.6838H14.2222C14.2342 14.4718 14.6482 13.5178 15.4642 12.8218C16.2922 12.1258 17.3962 11.7778 18.7762 11.7778C20.2282 11.7778 21.3562 12.0838 22.1602 12.6958C22.9762 13.3078 23.3842 14.1238 23.3842 15.1438C23.3842 15.8878 23.1562 16.4938 22.7002 16.9618C22.2562 17.4298 21.6622 17.7538 20.9182 17.9338Z" fill="#141414"/>
</svg>
