<svg width="42" height="37" viewBox="0 0 42 37" fill="none" xmlns="http://www.w3.org/2000/svg">
<path d="M0.961345 4.96418C0.961171 2.75492 2.75208 0.963867 4.96135 0.963867H27.8296L27.8325 37.0001H4.96357C2.75455 37.0001 0.963736 35.2094 0.963561 33.0004L0.961345 4.96418Z" fill="#141414"/>
<path d="M27.8296 0.963867L27.8325 37.0001L39.7191 21.8248C40.8326 20.4034 40.8556 18.4122 39.7755 16.9653L27.8296 0.963867Z" fill="#141414"/>
<path d="M19.8092 12.8497V25.4497H17.2172V17.4037C17.0612 17.4637 16.8332 17.4937 16.5332 17.4937H14.4272V15.3517H16.3172C16.6292 15.3517 16.8632 15.2317 17.0192 14.9917C17.1872 14.7397 17.2712 14.4337 17.2712 14.0737V12.8497H19.8092Z" fill="#E97958"/>
</svg>
