<svg width="28" height="24.6" viewBox="0 0 42 37" fill="none" xmlns="http://www.w3.org/2000/svg">
<path d="M0.961345 4.41291C0.961171 2.20365 2.75208 0.412598 4.96135 0.412598H27.8296L27.8325 36.4488H4.96357C2.75455 36.4488 0.963736 34.6581 0.963561 32.4491L0.961345 4.41291Z" fill="#141414"/>
<path d="M27.8296 0.412598L27.8325 36.4488L39.7191 21.2736C40.8326 19.8521 40.8556 17.861 39.7755 16.4141L27.8296 0.412598Z" fill="#141414"/>
<path d="M19.6112 18.9404C20.2232 18.4484 20.6732 17.9984 20.9612 17.5904C21.2492 17.1824 21.3932 16.7384 21.3932 16.2584C21.3932 15.6464 21.2072 15.1784 20.8352 14.8544C20.4752 14.5184 19.9892 14.3504 19.3772 14.3504C18.7892 14.3504 18.3092 14.5484 17.9372 14.9444C17.5772 15.3404 17.3972 15.8744 17.3972 16.5464V16.7444H14.7872V16.4024C14.7872 15.6104 14.9732 14.8904 15.3452 14.2424C15.7292 13.5944 16.2692 13.0904 16.9652 12.7304C17.6612 12.3584 18.4652 12.1724 19.3772 12.1724C20.8532 12.1724 21.9932 12.5324 22.7972 13.2524C23.6132 13.9724 24.0212 14.9384 24.0212 16.1504C24.0212 17.0144 23.8052 17.7644 23.3732 18.4004C22.9532 19.0244 22.2992 19.6964 21.4112 20.4164L18.5852 22.7204H24.0752V24.8984H14.8412V22.9004L19.6112 18.9404Z" fill="#FAEADC"/>
</svg>
