<svg width="26" height="23" viewBox="0 0 26 23" fill="none" xmlns="http://www.w3.org/2000/svg">
<path d="M0.000316208 4.00032C0.000141575 1.79105 1.79105 0 4.00032 0H16.908L16.9098 22.6771H4.00148C1.79246 22.6771 0.00165098 20.8864 0.00147637 18.6774L0.000316208 4.00032Z" fill="#EDB88B"/>
<path d="M16.908 0L16.9098 22.6771L23.6906 14.0203C24.8041 12.5988 24.8271 10.6077 23.747 9.16078L16.908 0Z" fill="#EDB88B"/>
<g clip-path="url(#clip0_73_297)">
<path d="M10.6206 5.93243L10.0683 6.48479C9.67773 6.87531 9.67773 7.50848 10.0683 7.899L10.6206 8.45136C11.0111 8.84188 11.6443 8.84188 12.0348 8.45136L12.5872 7.899C12.9777 7.50848 12.9777 6.87531 12.5872 6.48479L12.0348 5.93243C11.6443 5.54191 11.0111 5.54191 10.6206 5.93243Z" fill="#2E282A" stroke="#2E282A" stroke-linecap="round" stroke-linejoin="round"/>
<path d="M10.6206 12.2256L10.0682 12.778C9.67771 13.1685 9.67771 13.8017 10.0682 14.1922L10.6206 14.7446C11.0111 15.1351 11.6443 15.1351 12.0348 14.7446L12.5872 14.1922C12.9777 13.8017 12.9777 13.1685 12.5872 12.778L12.0348 12.2256C11.6443 11.8351 11.0111 11.8351 10.6206 12.2256Z" fill="#2E282A" stroke="#2E282A" stroke-linecap="round" stroke-linejoin="round"/>
<path d="M13.767 9.07892L13.2147 9.63127C12.8241 10.0218 12.8241 10.655 13.2147 11.0455L13.767 11.5978C14.1575 11.9884 14.7907 11.9884 15.1812 11.5978L15.7336 11.0455C16.1241 10.655 16.1241 10.0218 15.7336 9.63127L15.1812 9.07892C14.7907 8.68839 14.1575 8.68839 13.767 9.07892Z" fill="#2E282A" stroke="#2E282A" stroke-linecap="round" stroke-linejoin="round"/>
<path d="M7.47418 9.0794L6.92182 9.63176C6.5313 10.0223 6.5313 10.6554 6.92182 11.046L7.47418 11.5983C7.8647 11.9889 8.49787 11.9889 8.88839 11.5983L9.44075 11.046C9.83127 10.6554 9.83127 10.0223 9.44075 9.63176L8.88839 9.07941C8.49787 8.68888 7.8647 8.68888 7.47418 9.0794Z" fill="#2E282A" stroke="#2E282A" stroke-linecap="round" stroke-linejoin="round"/>
</g>
<defs>
<clipPath id="clip0_73_297">
<rect width="12.5857" height="12.5857" fill="white" transform="translate(5.03429 4.04565)"/>
</clipPath>
</defs>
</svg>
