<svg width="42" height="37" viewBox="0 0 42 37" fill="none" xmlns="http://www.w3.org/2000/svg">
<path d="M0.961345 4.96418C0.961171 2.75492 2.75208 0.963867 4.96135 0.963867H27.8296L26.6077 18.896L27.8325 37.0001H4.96357C2.75455 37.0001 0.963736 35.2094 0.963561 33.0004L0.961345 4.96418Z" fill="#17BEBB"/>
<path d="M27.8296 0.963867L26.6077 18.896L27.8325 37.0001L39.7191 21.8248C40.8326 20.4034 40.8556 18.4122 39.7755 16.9653L27.8296 0.963867Z" fill="#17BEBB"/>
<path d="M18.6952 13.7639V24.9639H16.3912V17.8119C16.2526 17.8652 16.0499 17.8919 15.7832 17.8919H13.9112V15.9879H15.5912C15.8686 15.9879 16.0766 15.8812 16.2152 15.6679C16.3646 15.4439 16.4392 15.1719 16.4392 14.8519V13.7639H18.6952Z" fill="#2E282A"/>
</svg>
