<svg width="48" height="48" viewBox="0 0 107 107" fill="none" xmlns="http://www.w3.org/2000/svg">
<path d="M76.1991 72.3654C65.336 86.3206 50.9019 89.2609 39.1547 84.3917C31.5527 79.513 25.7095 69.3022 25.1418 60.2247C25.0275 58.5064 24.9708 56.7847 24.9718 55.0626C24.9718 53.9293 24.9718 52.9071 25.1428 51.7727C25.2551 50.9783 25.5384 50.1839 25.5962 49.4472C26.1629 45.0785 28.8294 47.1773 31.836 48.1984C32.0627 48.2551 33.9915 48.9928 34.1615 48.8228C34.5026 48.4828 34.2759 45.5329 34.3326 45.0785C34.7292 41.6186 34.9559 37.9876 36.0337 34.641C36.3181 33.8466 36.6581 31.7478 37.4525 31.35C38.9836 30.6123 41.6502 32.3711 42.8979 32.8822C43.1246 32.9388 44.6567 33.9033 44.9401 33.6766C45.3945 33.2222 46.0745 32.0878 46.4722 31.52C53.4765 21.5134 53.5899 10.5638 56.002 9.90729C59.5057 8.95464 69.6107 23.7726 74.3814 41.3919C74.7792 41.7875 76.3113 40.4831 76.538 40.3131C78.9202 38.5553 81.2467 36.0021 81.8134 39.6897C82.4945 43.9451 81.4168 49.6172 78.5235 52.9071C75.6303 56.1971 73.5582 59.4314 73.7014 59.4314C75.0059 60.7358 80.3957 58.2403 81.1901 59.7147C82.9489 63.0613 77.5024 69.9255 76.1969 72.3654H76.1991Z" fill="#B9ECEB"/>
<path d="M57.7052 44.6249C57.1952 47.6881 56.7407 50.808 56.0041 53.8146C53.0531 65.6709 46.1333 78.3783 37.7935 87.2836C36.2336 88.9559 33.2601 92.7365 27.9142 97.0133" stroke="#052625" stroke-width="0.427678" stroke-miterlimit="2.854" stroke-linecap="round" stroke-linejoin="round"/>
</svg>
