<svg width="108" height="107" viewBox="0 0 108 107" fill="none" xmlns="http://www.w3.org/2000/svg">
<path d="M31.5016 72.4458C42.3646 86.4009 56.7988 89.3412 68.546 84.4721C76.148 79.5933 81.9912 69.3825 82.5589 60.305C82.6732 58.5867 82.7299 56.8651 82.7289 55.143C82.7289 54.0096 82.7289 52.9875 82.5578 51.853C82.4456 51.0586 82.1622 50.2642 82.1045 49.5275C81.5378 45.1588 78.8713 47.2576 75.8647 48.2787C75.638 48.3354 73.7092 49.0731 73.5392 48.9031C73.1981 48.5631 73.4248 45.6132 73.3681 45.1588C72.9714 41.6989 72.7448 38.0679 71.667 34.7213C71.3826 33.9269 71.0426 31.8281 70.2482 31.4303C68.7171 30.6926 66.0505 32.4514 64.8028 32.9625C64.5761 33.0192 63.044 33.9836 62.7606 33.7569C62.3062 33.3025 61.6262 32.1681 61.2285 31.6003C54.2242 21.5937 54.1108 10.6441 51.6987 9.98762C48.195 9.03496 38.09 23.8529 33.3192 41.4722C32.9215 41.8678 31.3893 40.5634 31.1627 40.3934C28.7805 38.6356 26.4539 36.0824 25.8873 39.7701C25.2062 44.0255 26.2839 49.6975 29.1772 52.9875C32.0704 56.2774 34.1425 59.5117 33.9992 59.5117C32.6948 60.8161 27.305 58.3206 26.5106 59.795C24.7518 63.1416 30.1983 70.0058 31.5037 72.4458H31.5016Z" fill="#FAE8F2"/>
<path d="M49.9955 44.7052C50.5055 47.7684 50.9599 50.8884 51.6966 53.8949C54.6476 65.7512 61.5674 78.4586 69.9072 87.364C71.4671 89.0362 74.4406 92.8169 79.7865 97.0936" stroke="#292524" stroke-width="0.427678" stroke-miterlimit="2.854" stroke-linecap="round" stroke-linejoin="round"/>
</svg>
