<svg width="69" height="70" viewBox="0 0 102 103" fill="none" xmlns="http://www.w3.org/2000/svg">
<path fill-rule="evenodd" clip-rule="evenodd" d="M28.9659 43.1395C30.5755 42.8703 38.9925 37.4704 42.8502 33.0242C43.9161 31.7931 48.8478 25.0539 52.2913 20.3069C52.3933 20.1681 52.4963 20.0233 52.6045 19.8744C55.5829 15.7536 61.0297 8.21987 66.2857 7.34369C72.7138 6.27269 80.7187 8.55239 84.71 13.8696C86.2849 15.9678 86.9142 18.7626 87.5099 21.4085C87.6915 22.2122 87.8689 23.0017 88.0699 23.7545C90.0048 31.0066 91.4369 38.8096 91.8123 46.3066C91.8755 47.5745 91.9663 48.8383 92.0571 50.1021C92.2223 52.4175 92.3886 54.7298 92.3886 57.0564V58.1172C92.3957 62.083 92.4018 65.9151 91.6205 69.8186C91.5348 70.247 91.4573 70.6948 91.3777 71.1497C91.0789 72.8715 90.7586 74.7136 89.8916 76.1518C86.699 81.4783 78.5217 83.0623 72.9086 83.0623C62.4893 83.0623 52.8615 77.8093 44.0201 72.9847C42.6227 72.2238 41.1386 71.5557 39.6515 70.8856C36.4813 69.4586 33.305 68.0285 30.9682 65.6917C30.7673 65.4908 29.6922 65.8304 29.53 65.8835C28.9098 66.0905 28.2407 66.2435 27.5645 66.3986C26.8698 66.5577 26.1671 66.7178 25.5 66.9412C21.6189 68.2468 15.8936 69.0424 12.7357 65.8835C11.7871 64.9349 11.5964 62.9357 11.4291 61.1742C11.3454 60.297 11.2679 59.4789 11.1047 58.8792C10.3162 55.9926 9.32583 52.2359 10.4315 49.281C11.8717 45.4498 21.3078 44.1861 26.6097 43.4751C27.5461 43.3497 28.3539 43.2415 28.9659 43.1395ZM63.6827 22.0939C67.5679 15.7719 76.752 17.816 79.1388 23.2761C81.4399 28.5291 81.9274 33.5016 82.4538 38.8719C82.5853 40.204 82.719 41.5606 82.8822 42.9529C83.1086 44.8807 83.4574 46.8085 83.8073 48.7393C84.3999 52.0146 84.9946 55.2959 84.9946 58.5956C84.9946 62.0075 84.457 63.9924 82.9801 66.9473C82.8434 67.2166 82.7241 67.4788 82.6088 67.7307C82.0172 69.0261 81.5602 70.0288 79.7151 70.1971C74.3152 70.6867 69.3671 68.0143 67.2404 62.903C66.3632 60.7998 65.9756 58.6303 65.584 56.4434C65.42 55.4901 65.2363 54.5403 65.0332 53.5945C64.6826 52.0503 64.3109 50.511 63.9183 48.977C62.9289 45.0367 61.9497 41.1322 61.6743 36.992C61.4734 34.0085 61.4111 30.8292 61.8661 27.8753C61.9905 27.0715 63.2543 22.7916 63.6827 22.0939Z" fill="#141414"/>
<path d="M28.9659 43.1395C30.5755 42.8703 38.9926 37.4704 42.8502 33.0242C43.9161 31.7931 48.8478 25.0539 52.2913 20.3069C52.3933 20.1681 52.4963 20.0233 52.6045 19.8744C55.5829 15.7536 61.0297 8.21987 66.2857 7.34369C72.7138 6.27269 80.7187 8.55239 84.71 13.8696C86.2849 15.9678 86.9142 18.7626 87.5099 21.4085C87.6915 22.2122 87.8689 23.0017 88.0699 23.7545C90.0048 31.0066 91.4369 38.8096 91.8123 46.3066C91.8755 47.5745 91.9663 48.8383 92.0571 50.1021C92.2223 52.4175 92.3886 54.7298 92.3886 57.0564V58.106V58.1172C92.3957 62.083 92.4018 65.9151 91.6205 69.8186C91.5348 70.247 91.4573 70.6948 91.3777 71.1497C91.0789 72.8715 90.7586 74.7136 89.8916 76.1518C86.699 81.4783 78.5217 83.0623 72.9086 83.0623C62.4893 83.0623 52.8615 77.8093 44.0201 72.9847C42.6227 72.2238 41.1386 71.5557 39.6515 70.8856C36.4813 69.4586 33.305 68.0285 30.9682 65.6917C30.7673 65.4908 29.6922 65.8304 29.53 65.8835C28.9098 66.0905 28.2407 66.2435 27.5645 66.3986C26.8698 66.5577 26.1671 66.7178 25.5 66.9412C21.6189 68.2468 15.8936 69.0424 12.7357 65.8835C11.7871 64.9349 11.5964 62.9357 11.4291 61.1742C11.3454 60.297 11.2679 59.4789 11.1047 58.8791C10.3162 55.9926 9.32583 52.2359 10.4315 49.281C11.8718 45.4498 21.3078 44.1861 26.6097 43.4751C27.5461 43.3497 28.3539 43.2415 28.9659 43.1395Z" stroke="#141414" stroke-width="0.612512" stroke-linecap="round" stroke-linejoin="round"/>
<path d="M17.8244 68.0326C20.4336 68.2723 23.2713 67.6909 25.5 66.9412C26.166 66.7179 26.8698 66.5567 27.5644 66.3986C28.2407 66.2436 28.9108 66.0906 29.53 65.8835C29.6922 65.8305 30.7672 65.4908 30.9682 65.6917C32.335 67.0585 33.9884 68.1142 35.7601 69.0414C36.0355 75.7296 36.5741 84.3404 37.1045 88.0542C37.1688 88.503 37.2952 89.0752 37.435 89.7066C37.8328 91.5018 38.3316 93.7601 37.7777 94.8678C37.4707 95.4788 36.2151 95.8572 35.5714 96.0194C35.1269 96.1316 34.6835 96.2486 34.2414 96.3703C32.7001 96.7885 31.2885 97.171 29.5239 97.171C29.1801 97.171 28.8139 97.1863 28.4386 97.2016C27.34 97.2475 26.1579 97.2964 25.2052 96.9792C24.1801 96.6375 23.8333 94.3527 23.6395 93.0808C23.619 92.9405 23.5972 92.8004 23.5742 92.6605C22.9693 89.0375 19.6472 75.4185 17.8244 68.0326Z" fill="#141414"/>
<path d="M17.8244 68.0326C20.4336 68.2723 23.2713 67.6909 25.5 66.9412C26.166 66.7179 26.8698 66.5567 27.5644 66.3986C28.2407 66.2436 28.9108 66.0906 29.53 65.8835C29.6922 65.8305 30.7672 65.4908 30.9682 65.6917C32.335 67.0585 33.9884 68.1142 35.7601 69.0414C36.0355 75.7296 36.5741 84.3404 37.1045 88.0542C37.1688 88.503 37.2952 89.0752 37.435 89.7066C37.8328 91.5018 38.3316 93.7601 37.7777 94.8678C37.4707 95.4788 36.2151 95.8572 35.5714 96.0194C35.1269 96.1316 34.6835 96.2486 34.2414 96.3703C32.7001 96.7885 31.2885 97.171 29.5239 97.171C29.1801 97.171 28.8139 97.1863 28.4386 97.2016C27.34 97.2475 26.1579 97.2964 25.2052 96.9792C24.1801 96.6375 23.8333 94.3527 23.6395 93.0808C23.619 92.9405 23.5972 92.8004 23.5742 92.6605C22.9693 89.0375 19.6472 75.4185 17.8244 68.0326Z" stroke="#141414" stroke-width="0.612512" stroke-linecap="round" stroke-linejoin="round"/>
<path d="M36.7342 83.912C38.4142 83.912 40.3246 83.8549 41.1365 83.4469C43.4111 82.3096 47.2494 77.5564 47.2494 74.7831" stroke="#141414" stroke-width="0.612512" stroke-linecap="round" stroke-linejoin="round"/>
<path d="M79.1396 23.2761C76.7528 17.816 67.5677 15.772 63.6825 22.0939C63.2541 22.7916 61.9893 27.0715 61.8669 27.8753C61.411 30.8292 61.4732 34.0086 61.6742 36.9921C62.0556 42.7377 63.7958 48.0285 65.033 53.5946C65.7307 56.7372 65.9847 59.89 67.2393 62.9031C69.367 68.0133 74.315 70.6868 79.7149 70.1961C81.9181 69.9952 82.1425 68.6049 82.9789 66.9474C84.4569 63.9925 84.9944 62.0076 84.9944 58.5957C84.9944 53.3529 83.493 48.1529 82.882 42.9529C82.0578 35.9517 82.0109 29.8337 79.1386 23.2761H79.1396Z" fill="#141414"/>
<path d="M79.1396 23.2761C76.7528 17.816 67.5677 15.772 63.6825 22.0939C63.2541 22.7916 61.9893 27.0715 61.8669 27.8753C61.411 30.8292 61.4732 34.0086 61.6742 36.9921C62.0556 42.7377 63.7958 48.0285 65.033 53.5946C65.7307 56.7372 65.9847 59.89 67.2393 62.9031C69.367 68.0133 74.315 70.6868 79.7149 70.1961C81.9181 69.9952 82.1425 68.6049 82.9789 66.9474C84.4569 63.9925 84.9944 62.0076 84.9944 58.5957C84.9944 53.3529 83.493 48.1529 82.882 42.9529C82.0578 35.9517 82.0109 29.8337 79.1386 23.2761H79.1396Z" stroke="#141414" stroke-width="0.612512" stroke-linecap="round" stroke-linejoin="round"/>
<path d="M65.8817 58.0632L67.3975 57.5706C68.0809 57.3472 68.5888 57.1819 68.6929 57.1523C69.9811 56.7851 72.1792 56.115 72.7249 54.7533C73.9897 51.5923 73.547 47.5511 73.1574 43.978C73.0676 43.1879 72.9877 42.3966 72.9177 41.6045C72.6627 38.5791 72.0691 33.9381 69.1743 32.2011C68.09 31.5595 66.7538 31.7808 65.5574 31.9787C65.2769 32.0256 65.0035 32.0705 64.7434 32.1032C64.4956 32.1338 63.038 32.3469 61.5233 32.5683C61.5131 34.0575 61.5773 35.5467 61.6742 36.992C61.9496 41.1332 62.9288 45.0368 63.9182 48.977C64.3018 50.506 64.6873 52.0391 65.0331 53.5946C65.2442 54.5442 65.4136 55.4959 65.5839 56.4434C65.6808 56.9841 65.7777 57.5247 65.8817 58.0632Z" fill="#141414"/>
<path d="M65.8817 58.0632L67.3975 57.5705C68.0809 57.3472 68.5888 57.1819 68.6929 57.1523C69.9811 56.7851 72.1792 56.115 72.7249 54.7533C73.9897 51.5923 73.547 47.5511 73.1574 43.978C73.0676 43.1879 72.9877 42.3966 72.9177 41.6045C72.6627 38.5791 72.0691 33.9381 69.1743 32.2011C68.09 31.5595 66.7538 31.7808 65.5574 31.9787C65.2769 32.0256 65.0035 32.0705 64.7434 32.1032C64.4956 32.1338 63.038 32.3469 61.5233 32.5683C61.5131 34.0575 61.5773 35.5467 61.6742 36.992C61.9496 41.1332 62.9288 45.0368 63.9182 48.977C64.3018 50.506 64.6873 52.0391 65.0331 53.5946C65.2442 54.5442 65.4136 55.4959 65.5839 56.4434C65.6808 56.9841 65.7777 57.5247 65.8817 58.0632Z" stroke="#141414" stroke-width="0.612512" stroke-linecap="round" stroke-linejoin="round"/>
</svg>
