<svg width="69" height="70" viewBox="0 0 78 79" fill="none" xmlns="http://www.w3.org/2000/svg">
<path d="M19.9519 44.6715C19.9906 45.326 20.3754 48.7143 20.5355 49.1365C21.3541 49.2182 24.5082 47.1122 24.8239 47.3282C25.1396 47.5443 24.5786 48.4478 24.0994 49.6355C23.4936 51.137 22.97 53.2492 22.3484 54.7484C22.14 55.5393 21.8191 56.0757 21.9855 56.7441C22.3486 57.2782 23.6386 56.753 24.3537 56.5793C26.2477 56.1196 27.9268 55.7933 29.8366 55.4345C30.1708 55.3721 31.4626 55.1332 31.6489 54.7484C31.7614 54.5162 31.3402 53.5667 31.2868 53.3147C31.2124 52.9762 31.0407 51.7573 30.6849 51.5683C30.3294 51.3793 29.4065 51.6414 28.6344 51.8806C27.8623 52.1195 27.4979 52.3267 27.3062 52.1296C27.0508 51.8663 27.6483 49.9064 27.7291 49.6355C28.244 47.9067 28.5145 46.8953 28.9737 45.1557C29.224 44.2082 28.7491 43.8557 28.0877 43.4004C27.6868 42.9834 26.3596 43.4443 25.8537 43.5873C25.1368 43.7904 25.3719 43.7914 23.632 44.0668C22.631 44.2254 19.9519 44.6715 19.9519 44.6715Z" fill="#141414"/>
<path d="M4.29625 27.4714C3.59965 27.3034 4.65455 31.3761 4.74285 32.3594C4.77159 32.6818 4.72616 33.5785 5.05778 33.7655C5.48769 34.0057 6.27643 33.3097 6.63371 33.1511C7.81284 32.6243 9.36464 31.2164 10.6505 31.2164C10.8112 31.2164 9.76812 34.3011 9.70549 34.467C8.91599 36.5826 8.46862 38.8586 7.65704 40.9683C7.33005 41.8216 6.81209 44.1876 6.94838 44.4842C7.24098 45.1202 9.3169 44.431 9.78429 44.3082C12.2578 43.66 14.6979 43.1434 17.1891 42.6375C17.6247 42.5501 19.3094 42.2129 19.553 41.6713C19.6993 41.3434 19.1516 40.0052 19.0795 39.6503C18.984 39.1704 18.7594 37.4502 18.2915 37.1886C17.2718 36.6198 14.5724 38.2588 13.5655 38.5952C13.365 38.6631 12.0815 39.2244 11.8327 38.9468C11.4983 38.5757 12.2786 35.8127 12.3841 35.4313C13.0527 32.9933 13.8329 30.5885 14.432 28.1365C14.5075 27.8255 15.1745 25.9769 14.9045 25.6753C14.3779 25.0877 12.6502 25.7369 11.9903 25.939C11.0545 26.2234 10.1955 26.4805 9.23271 26.6417C7.93167 26.87 5.61936 27.4714 4.29625 27.4714Z" fill="#141414"/>
<path fill-rule="evenodd" clip-rule="evenodd" d="M33.747 51.6921C28.9696 47.4574 33.0745 41.311 37.3308 42.012C39.7617 42.4121 40.9783 43.4735 41.2491 44.0442C41.7493 45.1135 41.834 46.2851 41.9177 47.179C42.2788 51.0506 39.3772 53.9634 35.6334 52.6239C35.0051 52.399 34.2598 52.1458 33.747 51.6921ZM35.5688 46.5352C35.9956 45.6541 36.2831 44.8278 37.3816 45.0896C38.4804 45.3514 38.5176 45.3824 38.9416 46.9876C39.2886 49.1578 37.4922 50.1682 36.0944 49.1578C34.8958 48.2915 35.1188 47.4645 35.5688 46.5352Z" fill="#141414"/>
<path fill-rule="evenodd" clip-rule="evenodd" d="M21.6092 38.0917C15.3781 32.1229 20.7347 23.46 26.2838 24.4475C29.4547 25.0117 31.0417 26.51 31.3928 27.3114C32.0052 28.7317 32.1379 30.2816 32.2429 31.5098L32.2619 31.7301C32.7372 37.1877 28.956 41.2931 24.0696 39.405C24.034 39.3911 23.9984 39.3773 23.9628 39.3637C23.1666 39.0574 22.2488 38.7043 21.6092 38.0917ZM24.0762 30.8713C24.6083 29.6841 25.4284 28.6891 26.3362 28.9239C27.7063 29.2785 27.7525 29.3183 28.2815 31.4807C28.8143 33.6606 26.4743 35.7671 24.7318 34.4057C23.6127 33.5324 23.5149 32.1234 24.0762 30.8713Z" fill="#141414"/>
<path fill-rule="evenodd" clip-rule="evenodd" d="M48.3798 38.6795C49.1493 38.3605 52.1127 38.219 53.6953 39.421C56.822 41.7966 57.13 46.0388 54.5041 49.0116L54.4948 49.0223C53.7823 49.8325 53.3157 50.5831 51.8468 50.9078C50.5517 51.0854 45.6663 51.7476 44.0169 47.0897C42.6304 43.172 45.5051 39.8721 48.3798 38.6795ZM49.2938 43.0847C50.419 42.5033 51.3609 42.6788 52.0909 43.6848C53.5947 45.758 50.7711 47.3825 49.0407 46.7868C47.2335 46.1654 47.9293 43.7893 49.2938 43.0847Z" fill="#141414"/>
<path fill-rule="evenodd" clip-rule="evenodd" d="M39.9488 20.3324C40.9523 19.8826 44.8172 19.6842 46.8816 21.3773C50.9595 24.7274 51.3615 30.7058 47.9365 34.8952L47.9034 34.9355C46.9789 36.0663 45.9289 37.3507 44.4707 37.568C42.7814 37.8207 36.4096 38.7518 34.2577 32.1871C32.4467 26.6644 36.195 22.0133 39.9488 20.3324ZM41.1446 26.5518C42.21 25.9577 44.3077 26.6909 44.7813 27.3947C46.7379 30.3057 43.066 32.5901 40.8155 31.7531C38.4665 30.8795 39.371 27.5419 41.1446 26.5518Z" fill="#141414"/>
<path d="M55.24 37.9282C55.24 38.3931 57.6919 38.2327 57.8755 38.1032C58.5246 37.6464 58.0518 36.733 58.2723 36.2871C58.3808 36.0684 58.656 35.9597 59.3095 36.07C59.552 36.1118 59.9763 36.1636 60.0273 36.421C60.2514 37.5712 60.1023 41.7234 59.9144 43.7057C59.8792 44.086 60.0309 46.0272 60.4252 46.3699C60.6015 46.522 63.0896 46.4793 63.2139 46.3699C63.4238 46.1855 63.3956 44.8809 63.3956 44.619C63.3956 43.0044 63.4546 41.8636 63.4531 39.4999C63.4531 39.1094 63.6797 38.2951 64.2036 38.254C65.4384 38.158 65.6951 38.7815 65.9094 39.8205C65.9525 40.0321 66.097 40.9273 66.1625 41.0383C66.2117 41.1252 68.1098 41.218 68.1547 41.1785C68.2915 41.0573 68.1547 40.2339 68.1547 40.0571C68.1547 39.0236 68.6046 36.9264 70.4647 37.7446C71.1703 38.0553 70.9516 38.9305 71.023 39.4955C71.217 41.0316 71.2409 42.7936 71.023 44.3312C70.9939 44.533 71.0009 45.7409 71.2152 45.9297C71.3361 46.0363 74.6938 46.3577 74.6073 45.579C74.5508 45.0696 74.8719 42.4694 74.768 41.5279C74.4892 39.0745 74.8835 35.4382 71.3415 34.6595C70.6906 34.5165 69.7599 34.374 69.11 34.6595C68.9927 34.7112 67.9396 35.382 67.915 35.3607C67.7094 35.1803 67.8382 34.4525 67.5965 34.1694C66.9712 33.4354 65.5901 33.138 64.5686 33.3319C62.518 33.7126 62.1987 36.0684 62.1875 36.0684C62.1759 36.0684 61.7226 34.7372 61.5399 34.5232C60.7648 33.6099 59.6341 33.0922 58.2766 33.3319C56.9194 33.5719 55.2331 35.0393 55.24 37.9282Z" fill="#141414"/>
<path d="M49.1092 21.2285C49.1428 21.8102 51.5508 21.4696 51.7233 21.2961C52.3321 20.6903 51.7988 19.5742 51.9872 19.0003C52.0796 18.7201 52.3437 18.569 52.9969 18.6707C53.2387 18.7086 53.6614 18.75 53.7323 19.0685C54.0343 20.4959 54.1768 25.705 54.1332 28.195C54.1247 28.669 54.4106 31.0956 54.8246 31.5066C55.0097 31.6923 57.4611 31.4936 57.5761 31.3488C57.7706 31.107 57.6518 29.475 57.6336 29.1487C57.5206 27.1272 57.4999 25.6948 57.3323 22.736C57.3048 22.2472 57.4711 21.2142 57.9852 21.1336C59.1967 20.9441 59.4942 21.7101 59.7791 22.9981C59.8365 23.2607 60.0416 24.3743 60.1132 24.5131C60.1682 24.6187 62.048 24.6275 62.0893 24.5755C62.2164 24.4169 62.0226 23.393 62.0113 23.1715C61.9389 21.8772 62.2359 19.226 64.1298 20.1451C64.8492 20.4951 64.6934 21.6029 64.803 22.3081C65.1018 24.2204 65.2489 26.4249 65.1413 28.3624C65.1272 28.6162 65.2188 30.1284 65.4427 30.352C65.5697 30.4786 68.9064 30.6905 68.7673 29.7207C68.6759 29.0863 68.8135 25.8126 68.6417 24.6418C68.1951 21.5855 68.3302 17.0108 64.7789 16.2368C64.1265 16.0946 63.1979 15.9659 62.5767 16.3629C62.4646 16.4347 61.4723 17.334 61.4464 17.3109C61.231 17.0961 61.3065 16.1778 61.0452 15.8372C60.3766 14.9568 58.9929 14.6594 57.9973 14.9568C56.0004 15.5501 55.85 18.517 55.8395 18.5178C55.8287 18.5183 55.2879 16.8774 55.0918 16.6216C54.2636 15.527 53.1103 14.9378 51.7841 15.3151C50.4577 15.6924 48.8979 17.6117 49.1092 21.2285Z" fill="#141414"/>
<path d="M19.9519 44.6715C19.9906 45.326 20.3754 48.7143 20.5355 49.1365C21.3541 49.2182 24.5082 47.1122 24.8239 47.3282C25.1396 47.5443 24.5786 48.4478 24.0994 49.6355C23.4936 51.137 22.97 53.2492 22.3484 54.7484C22.14 55.5393 21.8191 56.0757 21.9855 56.7441C22.3486 57.2782 23.6386 56.753 24.3537 56.5793C26.2477 56.1196 27.9268 55.7933 29.8366 55.4345C30.1708 55.3721 31.4626 55.1332 31.6489 54.7484C31.7614 54.5162 31.3402 53.5667 31.2868 53.3147C31.2124 52.9762 31.0407 51.7573 30.6849 51.5683C30.3294 51.3793 29.4065 51.6414 28.6344 51.8806C27.8623 52.1195 27.4979 52.3267 27.3062 52.1296C27.0508 51.8663 27.6483 49.9064 27.7291 49.6355C28.244 47.9067 28.5145 46.8953 28.9737 45.1557C29.224 44.2082 28.7491 43.8557 28.0877 43.4004C27.6868 42.9834 26.3596 43.4443 25.8537 43.5873C25.1368 43.7904 25.3719 43.7914 23.632 44.0668C22.631 44.2254 19.9519 44.6715 19.9519 44.6715Z" stroke="#141414" stroke-width="0.612512" stroke-linecap="round" stroke-linejoin="round"/>
<path d="M4.29625 27.4714C3.59965 27.3034 4.65455 31.3761 4.74285 32.3594C4.77159 32.6818 4.72616 33.5785 5.05778 33.7655C5.48769 34.0057 6.27643 33.3097 6.63371 33.1511C7.81284 32.6243 9.36464 31.2164 10.6505 31.2164C10.8112 31.2164 9.76812 34.3011 9.70549 34.467C8.91599 36.5826 8.46862 38.8586 7.65704 40.9683C7.33005 41.8216 6.81209 44.1876 6.94838 44.4842C7.24098 45.1202 9.3169 44.4307 9.78429 44.3082C12.2578 43.66 14.6979 43.1434 17.1891 42.6375C17.6247 42.5501 19.3094 42.2129 19.553 41.671C19.6993 41.3434 19.1516 40.0052 19.0795 39.6503C18.984 39.1701 18.7594 37.4502 18.2915 37.1886C17.2718 36.6198 14.5724 38.2588 13.5655 38.5952C13.365 38.6631 12.0815 39.2244 11.8327 38.9468C11.4983 38.5757 12.2786 35.8127 12.3841 35.4313C13.0527 32.9933 13.833 30.5885 14.432 28.1365C14.5075 27.8255 15.1745 25.9769 14.9045 25.6753C14.3779 25.0877 12.6502 25.7369 11.9903 25.939C11.0545 26.2234 10.1955 26.4805 9.23271 26.6417C7.93167 26.87 5.61936 27.4714 4.29625 27.4714Z" stroke="#141414" stroke-width="0.612512" stroke-linecap="round" stroke-linejoin="round"/>
<path d="M33.747 51.6921C28.9696 47.4574 33.0745 41.311 37.3308 42.012C39.7617 42.4121 40.9783 43.4735 41.2491 44.0442C41.7493 45.1135 41.834 46.2851 41.9177 47.179C42.2788 51.0506 39.3772 53.9634 35.6334 52.6239C35.0051 52.399 34.2598 52.1458 33.747 51.6921ZM35.5688 46.5352C35.9956 45.6541 36.2831 44.8278 37.3816 45.0896C38.4804 45.3514 38.5176 45.3824 38.9416 46.9876C39.2886 49.1578 37.4922 50.1682 36.0944 49.1578C34.8958 48.2915 35.1188 47.4645 35.5688 46.5352Z" stroke="#141414" stroke-width="0.612512" stroke-linecap="round" stroke-linejoin="round"/>
<path d="M21.6092 38.0917C15.3781 32.1229 20.7347 23.46 26.2838 24.4475C29.4547 25.0117 31.0417 26.51 31.3928 27.3114C32.0052 28.7317 32.1379 30.2816 32.2429 31.5098L32.2619 31.7301C32.7372 37.1877 28.956 41.2931 24.0696 39.405C24.034 39.3911 23.9984 39.3773 23.9628 39.3637C23.1666 39.0574 22.2488 38.7043 21.6092 38.0917ZM24.0762 30.8713C24.6083 29.6841 25.4284 28.6891 26.3362 28.9239C27.7063 29.2785 27.7525 29.3183 28.2815 31.4807C28.8143 33.6606 26.4743 35.7671 24.7318 34.4057C23.6127 33.5324 23.5149 32.1234 24.0762 30.8713Z" stroke="#141414" stroke-width="0.612512" stroke-linecap="round" stroke-linejoin="round"/>
<path d="M48.3798 38.6795C49.1493 38.3605 52.1127 38.219 53.6953 39.421C56.822 41.7966 57.13 46.0388 54.5041 49.0116L54.4948 49.0223C53.7823 49.8325 53.3157 50.5831 51.8468 50.9078C50.5517 51.0854 45.6663 51.7476 44.0169 47.0897C42.6304 43.172 45.5051 39.8721 48.3798 38.6795ZM49.2938 43.0847C50.419 42.5033 51.3609 42.6788 52.0909 43.6848C53.5947 45.758 50.7711 47.3825 49.0407 46.7868C47.2335 46.1654 47.9293 43.7893 49.2938 43.0847Z" stroke="#141414" stroke-width="0.612512" stroke-linecap="round" stroke-linejoin="round"/>
<path d="M39.9488 20.3324C40.9523 19.8826 44.8172 19.6842 46.8816 21.3773C50.9595 24.7274 51.3615 30.7058 47.9365 34.8952L47.9034 34.9355C46.9789 36.0663 45.9289 37.3507 44.4707 37.568C42.7814 37.8207 36.4096 38.7518 34.2577 32.1871C32.4467 26.6644 36.195 22.0133 39.9488 20.3324ZM41.1446 26.5518C42.21 25.9577 44.3077 26.6909 44.7813 27.3947C46.7379 30.3057 43.066 32.5901 40.8155 31.7531C38.4665 30.8795 39.371 27.5419 41.1446 26.5518Z" stroke="#141414" stroke-width="0.612512" stroke-linecap="round" stroke-linejoin="round"/>
<path d="M55.24 37.9282C55.24 38.3931 57.6919 38.2327 57.8755 38.1032C58.5246 37.6464 58.0518 36.733 58.2723 36.2871C58.3808 36.0684 58.656 35.9597 59.3095 36.07C59.552 36.1118 59.9763 36.1636 60.0273 36.421C60.2514 37.5712 60.1023 41.7234 59.9144 43.7057C59.8792 44.0861 60.0309 46.0272 60.4252 46.3696C60.6015 46.522 63.0896 46.4794 63.2139 46.3696C63.4238 46.1856 63.3956 44.8809 63.3956 44.6191C63.3956 43.0045 63.4546 41.8636 63.4531 39.4999C63.4531 39.1094 63.6797 38.2951 64.2036 38.254C65.4384 38.1581 65.6951 38.7813 65.9094 39.8205C65.9525 40.0321 66.097 40.9273 66.1625 41.0383C66.2117 41.1252 68.1098 41.218 68.1547 41.1785C68.2915 41.0573 68.1547 40.2336 68.1547 40.0571C68.1547 39.0233 68.6046 36.9264 70.4647 37.7446C71.1703 38.0551 70.9516 38.9305 71.023 39.4955C71.217 41.0316 71.2409 42.7936 71.023 44.3312C70.9939 44.533 71.0009 45.741 71.2152 45.9297C71.3361 46.0363 74.6938 46.3577 74.6073 45.579C74.5508 45.0696 74.8719 42.4694 74.768 41.5279C74.4892 39.0746 74.8835 35.4382 71.3415 34.6595C70.6906 34.5165 69.7599 34.374 69.11 34.6595C68.9927 34.7112 67.9396 35.382 67.915 35.3607C67.7094 35.1803 67.8382 34.4525 67.5965 34.1694C66.9712 33.4354 65.5901 33.138 64.5686 33.3319C62.518 33.7126 62.1987 36.0684 62.1875 36.0684C62.1759 36.0684 61.7226 34.7372 61.5399 34.5232C60.7648 33.6099 59.6341 33.0922 58.2766 33.3319C56.9194 33.5716 55.2331 35.0393 55.24 37.9282Z" stroke="#141414" stroke-width="0.612512" stroke-linecap="round" stroke-linejoin="round"/>
<path d="M49.1092 21.2285C49.1428 21.8102 51.5508 21.4696 51.7233 21.2961C52.3321 20.6903 51.7988 19.5742 51.9872 19.0003C52.0796 18.7201 52.3437 18.569 52.9969 18.6707C53.2387 18.7086 53.6614 18.75 53.7323 19.0685C54.0343 20.4959 54.1768 25.705 54.1332 28.195C54.1247 28.669 54.4106 31.0956 54.8246 31.5066C55.0097 31.6923 57.4611 31.4936 57.5761 31.3488C57.7706 31.107 57.6518 29.475 57.6336 29.1487C57.5206 27.1272 57.4999 25.6948 57.3323 22.736C57.3048 22.2472 57.4711 21.2142 57.9852 21.1336C59.1967 20.9441 59.4942 21.7101 59.7791 22.9981C59.8365 23.2607 60.0416 24.3743 60.1132 24.5131C60.1682 24.6187 62.048 24.6275 62.0893 24.5755C62.2164 24.4169 62.0226 23.393 62.0113 23.1715C61.9389 21.8772 62.2359 19.226 64.1298 20.1451C64.8492 20.4951 64.6934 21.6029 64.803 22.3081C65.1018 24.2204 65.2489 26.4249 65.1413 28.3624C65.1272 28.6162 65.2188 30.1284 65.4427 30.352C65.5697 30.4786 68.9064 30.6905 68.7673 29.7207C68.6759 29.0863 68.8135 25.8126 68.6417 24.6418C68.1951 21.5855 68.3302 17.0108 64.7789 16.2368C64.1265 16.0946 63.1979 15.9659 62.5767 16.3629C62.4646 16.4347 61.4723 17.334 61.4464 17.3109C61.231 17.0961 61.3065 16.1778 61.0452 15.8372C60.3766 14.9568 58.9929 14.6594 57.9973 14.9568C56.0004 15.5501 55.85 18.517 55.8395 18.5178C55.8287 18.5183 55.2879 16.8774 55.0918 16.6216C54.2636 15.527 53.1103 14.9378 51.7841 15.3151C50.4577 15.6924 48.8979 17.6117 49.1092 21.2285Z" stroke="#141414" stroke-width="0.612512" stroke-linecap="round" stroke-linejoin="round"/>
</svg>
